<svg width="393" height="145" viewBox="0 0 393 145" fill="none" xmlns="http://www.w3.org/2000/svg">
<path d="M16.322 49.8873C15.6362 48.766 15.191 47.5145 15.0144 46.2122C14.8378 44.9098 14.9338 43.5849 15.2962 42.3216C15.5428 41.2728 15.963 40.2726 16.5396 39.3624L29.837 20.3394V4.98426C29.8355 4.30248 29.9742 3.62767 30.2445 3.00175C30.5148 2.37583 30.9109 1.81216 31.4082 1.34577C31.9054 0.879368 32.4933 0.520201 33.1353 0.290572C33.7772 0.0609432 34.4595 -0.0342425 35.1398 0.0109273C36.4209 0.120928 37.6125 0.712696 38.4744 1.66685C39.3362 2.621 39.8041 3.86651 39.7837 5.15211V20.1654L43.0474 24.2559C44.4682 26.0378 46.2796 27.4691 48.3417 28.4392C50.4038 29.4094 52.6614 29.8924 54.9399 29.8509C57.1901 29.7873 59.3987 29.2291 61.4089 28.2159C63.4191 27.2028 65.1816 25.7595 66.5713 23.9886L69.6237 20.1654V4.98426C69.6222 4.30248 69.7609 3.62767 70.0312 3.00175C70.3014 2.37583 70.6975 1.81216 71.1948 1.34577C71.6921 0.879368 72.28 0.520201 72.9219 0.290572C73.5639 0.0609432 74.2462 -0.0342425 74.9265 0.0109273C76.2075 0.120928 77.3992 0.712696 78.261 1.66685C79.1229 2.621 79.5908 3.86651 79.5703 5.15211V20.3394L92.8865 39.3624C93.463 40.2726 93.8832 41.2728 94.1298 42.3216C94.4922 43.5849 94.5882 44.9098 94.4116 46.2122C94.235 47.5145 93.7898 48.766 93.104 49.8873C93.079 49.9231 93.0562 49.9605 93.0357 49.9992L84.4194 63.5142C84.1932 63.8691 83.8806 64.1608 83.5109 64.3619C83.1412 64.5631 82.7265 64.6671 82.3057 64.6643H27.1017C26.684 64.6639 26.2731 64.5584 25.9069 64.3574C25.5408 64.1564 25.2312 63.8664 25.0067 63.5142L16.3904 49.9992C16.3698 49.9605 16.347 49.9231 16.322 49.8873ZM108.639 130.43C108.614 130.358 108.582 130.287 108.546 130.219L83.1076 76.0408C82.9065 75.6124 82.5874 75.2503 82.1876 74.9971C81.7879 74.7438 81.3242 74.6098 80.851 74.6109H28.5564C28.0832 74.6098 27.6195 74.7438 27.2197 74.9971C26.82 75.2503 26.5008 75.6124 26.2997 76.0408L0.861115 130.219C0.824872 130.287 0.793705 130.358 0.767866 130.43C0.225551 131.738 -0.0348282 133.145 0.00373565 134.56C0.0422995 135.975 0.378937 137.366 0.991664 138.643C1.80841 140.321 3.08109 141.736 4.66417 142.726C6.24725 143.715 8.07682 144.239 9.94367 144.238H99.4637C101.329 144.238 103.158 143.713 104.74 142.724C106.321 141.735 107.593 140.32 108.409 138.643C109.023 137.367 109.361 135.976 109.401 134.561C109.44 133.146 109.181 131.738 108.639 130.43Z" fill="#8E7CC3"/>
<path d="M150.038 72.1194C147.185 72.1194 144.552 71.6608 142.14 70.7436C139.763 69.8265 137.691 68.5526 135.924 66.9221C134.192 65.2577 132.85 63.2875 131.899 61.0116C130.948 58.7357 130.472 56.239 130.472 53.5215C130.472 50.804 130.948 48.3073 131.899 46.0313C132.884 43.7554 134.26 41.8022 136.026 40.1717C137.792 38.5073 139.881 37.2164 142.293 36.2993C144.739 35.3821 147.423 34.9236 150.344 34.9236C152.008 34.9236 153.639 35.1274 155.235 35.535C156.866 35.9087 158.394 36.5031 159.821 37.3184C161.282 38.0996 162.607 39.1017 163.796 40.3246L157.223 48.0185C156.747 47.441 156.17 46.9145 155.49 46.439C154.845 45.9634 154.08 45.5898 153.197 45.318C152.348 45.0123 151.363 44.8594 150.242 44.8594C149.087 44.8594 147.983 45.0632 146.93 45.4709C145.911 45.8445 145.011 46.405 144.23 47.1523C143.482 47.8996 142.888 48.8168 142.446 49.9038C142.005 50.9908 141.784 52.2476 141.784 53.6743C141.784 54.9651 142.005 56.1371 142.446 57.1901C142.888 58.2431 143.516 59.1433 144.331 59.8906C145.147 60.6379 146.132 61.2154 147.287 61.623C148.442 62.0306 149.732 62.2345 151.159 62.2345C152.178 62.2345 153.146 62.0816 154.063 61.7759C154.981 61.4702 155.813 61.0795 156.56 60.604C157.307 60.0944 157.953 59.5339 158.496 58.9225L163.745 67.1769C162.861 68.128 161.689 68.9773 160.229 69.7246C158.768 70.4719 157.155 71.0663 155.388 71.5079C153.622 71.9156 151.839 72.1194 150.038 72.1194ZM167.927 71.6098V33.9045H178.015V49.8528L175.824 50.4643C176.198 49.1735 176.86 48.0355 177.812 47.0504C178.797 46.0313 179.969 45.2331 181.327 44.6556C182.686 44.0781 184.13 43.7894 185.658 43.7894C187.697 43.7894 189.429 44.214 190.856 45.0632C192.282 45.9125 193.352 47.1693 194.066 48.8338C194.813 50.4643 195.187 52.4514 195.187 54.7953V71.6098H184.843V55.6615C184.843 54.9142 184.724 54.2858 184.486 53.7762C184.249 53.2667 183.892 52.8761 183.416 52.6043C182.941 52.3326 182.38 52.1967 181.735 52.1967C181.225 52.1967 180.75 52.2816 180.308 52.4514C179.901 52.5873 179.544 52.8081 179.238 53.1138C178.933 53.4196 178.695 53.7592 178.525 54.1329C178.355 54.5066 178.27 54.9312 178.27 55.4067V71.6098H173.124C171.833 71.6098 170.746 71.6098 169.863 71.6098C169.014 71.6098 168.368 71.6098 167.927 71.6098ZM211.545 72.0684C209.269 72.0684 207.248 71.474 205.481 70.2851C203.715 69.0622 202.322 67.3977 201.303 65.2916C200.284 63.1516 199.774 60.7059 199.774 57.9544C199.774 55.1689 200.267 52.7232 201.252 50.6171C202.271 48.4771 203.664 46.8126 205.43 45.6237C207.231 44.4008 209.303 43.7894 211.647 43.7894C212.869 43.7894 213.99 43.9593 215.009 44.2989C216.028 44.6386 216.929 45.1142 217.71 45.7256C218.491 46.3371 219.171 47.0504 219.748 47.8657C220.326 48.6469 220.818 49.4962 221.226 50.4133L219.137 50.3624V44.3499H229.276V71.6098H218.882V64.935L221.175 65.1388C220.835 66.1239 220.359 67.041 219.748 67.8903C219.171 68.7395 218.474 69.4698 217.659 70.0812C216.844 70.6927 215.927 71.1852 214.908 71.5589C213.888 71.8986 212.767 72.0684 211.545 72.0684ZM214.5 63.6611C215.485 63.6611 216.317 63.4403 216.997 62.9987C217.71 62.5572 218.236 61.9117 218.576 61.0625C218.95 60.2133 219.137 59.1773 219.137 57.9544C219.137 56.7315 218.95 55.6955 218.576 54.8462C218.236 53.9631 217.71 53.3007 216.997 52.8591C216.317 52.4175 215.485 52.1967 214.5 52.1967C213.515 52.1967 212.683 52.4175 212.003 52.8591C211.324 53.3007 210.797 53.9631 210.424 54.8462C210.084 55.6955 209.914 56.7315 209.914 57.9544C209.914 59.1773 210.084 60.2133 210.424 61.0625C210.797 61.9117 211.324 62.5572 212.003 62.9987C212.683 63.4403 213.515 63.6611 214.5 63.6611ZM236.395 71.6098V44.3499H245.974L246.586 53.4196L244.293 51.9929C244.734 50.4303 245.431 49.0376 246.382 47.8147C247.333 46.5579 248.471 45.5728 249.796 44.8594C251.154 44.1461 252.598 43.7894 254.127 43.7894C254.738 43.7894 255.316 43.8404 255.859 43.9423C256.403 44.0102 256.929 44.1121 257.439 44.248L254.585 55.7124C254.246 55.4747 253.702 55.2539 252.955 55.0501C252.241 54.8462 251.46 54.7443 250.611 54.7443C250 54.7443 249.439 54.8462 248.929 55.0501C248.454 55.2199 248.046 55.4916 247.707 55.8653C247.401 56.239 247.163 56.6806 246.993 57.1901C246.823 57.6996 246.738 58.2941 246.738 58.9734V71.6098H236.395ZM261.523 71.6098V44.3499H271.102L271.51 48.63L270.338 48.2223C270.848 47.3391 271.425 46.6258 272.071 46.0823C272.75 45.5048 273.463 45.0463 274.211 44.7066C274.958 44.3669 275.722 44.1291 276.504 43.9932C277.285 43.8573 278.032 43.7894 278.745 43.7894C279.934 43.7894 281.055 43.9593 282.108 44.2989C283.161 44.6047 284.113 45.1651 284.962 45.9804C285.811 46.7956 286.524 47.9676 287.102 49.4962L285.522 49.4452L285.93 48.7319C286.439 47.8487 287.051 47.1014 287.764 46.4899C288.478 45.8785 289.259 45.369 290.108 44.9613C290.957 44.5537 291.823 44.265 292.707 44.0951C293.59 43.8913 294.439 43.7894 295.254 43.7894C297.496 43.7894 299.381 44.214 300.91 45.0632C302.439 45.9125 303.577 47.1693 304.324 48.8338C305.105 50.4643 305.496 52.4514 305.496 54.7953V71.6098H295.152V55.6615C295.152 54.9142 295.033 54.2858 294.796 53.7762C294.558 53.2667 294.201 52.8761 293.726 52.6043C293.284 52.3326 292.741 52.1967 292.095 52.1967C291.586 52.1967 291.11 52.2816 290.668 52.4514C290.261 52.5873 289.904 52.8081 289.598 53.1138C289.327 53.4196 289.106 53.7592 288.936 54.1329C288.766 54.5066 288.681 54.9312 288.681 55.4067V71.6098H278.338V55.6615C278.338 54.9142 278.219 54.2858 277.981 53.7762C277.743 53.2667 277.387 52.8761 276.911 52.6043C276.47 52.3326 275.926 52.1967 275.281 52.1967C274.771 52.1967 274.296 52.2816 273.854 52.4514C273.446 52.5873 273.09 52.8081 272.784 53.1138C272.512 53.4196 272.291 53.7592 272.122 54.1329C271.952 54.5066 271.867 54.9312 271.867 55.4067V71.6098H261.523ZM325.325 72.1194C322.166 72.1194 319.448 71.5079 317.172 70.2851C314.897 69.0622 313.147 67.3977 311.924 65.2916C310.701 63.1516 310.09 60.7059 310.09 57.9544C310.09 55.9163 310.43 54.031 311.109 52.2986C311.788 50.5662 312.74 49.0716 313.962 47.8147C315.219 46.5239 316.68 45.5388 318.344 44.8594C320.043 44.1461 321.894 43.7894 323.898 43.7894C325.902 43.7894 327.72 44.1461 329.35 44.8594C331.015 45.5388 332.441 46.5239 333.63 47.8147C334.819 49.0716 335.719 50.5662 336.331 52.2986C336.976 54.031 337.265 55.9163 337.197 57.9544L337.146 60.0944H315.797L314.625 55.2539H328.943L327.975 56.2729V55.3558C327.975 54.7104 327.805 54.1499 327.465 53.6743C327.159 53.1648 326.718 52.7741 326.14 52.5024C325.563 52.2306 324.883 52.0948 324.102 52.0948C323.117 52.0948 322.285 52.2986 321.605 52.7062C320.926 53.1138 320.4 53.6913 320.026 54.4386C319.686 55.1859 319.516 56.0861 319.516 57.1391C319.516 58.362 319.771 59.432 320.281 60.3492C320.824 61.2663 321.605 61.9797 322.624 62.4892C323.678 62.9987 324.968 63.2535 326.497 63.2535C327.516 63.2535 328.382 63.1346 329.096 62.8968C329.843 62.6251 330.624 62.2005 331.439 61.623L336.178 68.2979C334.921 69.283 333.681 70.0473 332.458 70.5908C331.27 71.1343 330.081 71.5249 328.892 71.7627C327.737 72.0005 326.548 72.1194 325.325 72.1194ZM372.994 72.1194C369.835 72.1194 367.117 71.5079 364.842 70.2851C362.566 69.0622 360.816 67.3977 359.593 65.2916C358.371 63.1516 357.759 60.7059 357.759 57.9544C357.759 55.9163 358.099 54.031 358.778 52.2986C359.458 50.5662 360.409 49.0716 361.632 47.8147C362.888 46.5239 364.349 45.5388 366.013 44.8594C367.712 44.1461 369.563 43.7894 371.567 43.7894C373.572 43.7894 375.389 44.1461 377.019 44.8594C378.684 45.5388 380.111 46.5239 381.299 47.8147C382.488 49.0716 383.389 50.5662 384 52.2986C384.645 54.031 384.934 55.9163 384.866 57.9544L384.815 60.0944H363.466L362.294 55.2539H376.612L375.644 56.2729V55.3558C375.644 54.7104 375.474 54.1499 375.134 53.6743C374.828 53.1648 374.387 52.7741 373.809 52.5024C373.232 52.2306 372.552 52.0948 371.771 52.0948C370.786 52.0948 369.954 52.2986 369.274 52.7062C368.595 53.1138 368.069 53.6913 367.695 54.4386C367.355 55.1859 367.185 56.0861 367.185 57.1391C367.185 58.362 367.44 59.432 367.95 60.3492C368.493 61.2663 369.274 61.9797 370.294 62.4892C371.347 62.9987 372.637 63.2535 374.166 63.2535C375.185 63.2535 376.051 63.1346 376.765 62.8968C377.512 62.6251 378.293 62.2005 379.108 61.623L383.847 68.2979C382.59 69.283 381.35 70.0473 380.128 70.5908C378.939 71.1343 377.75 71.5249 376.561 71.7627C375.406 72.0005 374.217 72.1194 372.994 72.1194Z" fill="#8E7CC3"/>
<path d="M132.51 113.455V77.7879H148.204C150.887 77.7879 153.35 78.2295 155.592 79.1126C157.834 79.9958 159.787 81.2357 161.452 82.8322C163.116 84.3948 164.39 86.2631 165.273 88.4371C166.19 90.6111 166.649 93.0059 166.649 95.6215C166.649 98.2031 166.19 100.598 165.273 102.806C164.39 104.98 163.116 106.865 161.452 108.462C159.787 110.024 157.834 111.247 155.592 112.13C153.35 113.013 150.887 113.455 148.204 113.455H132.51ZM143.516 106.678L141.631 104.08H147.949C149.07 104.08 150.089 103.876 151.006 103.468C151.923 103.027 152.722 102.432 153.401 101.685C154.08 100.938 154.607 100.054 154.981 99.0353C155.354 97.9823 155.541 96.8443 155.541 95.6215C155.541 94.3986 155.354 93.2776 154.981 92.2586C154.607 91.2055 154.08 90.3054 153.401 89.558C152.722 88.8107 151.923 88.2333 151.006 87.8256C150.089 87.384 149.07 87.1632 147.949 87.1632H141.478L143.516 84.6665V106.678ZM185.453 113.965C182.294 113.965 179.576 113.353 177.3 112.13C175.024 110.907 173.275 109.243 172.052 107.137C170.829 104.997 170.218 102.551 170.218 99.7996C170.218 97.7615 170.557 95.8762 171.237 94.1438C171.916 92.4114 172.867 90.9168 174.09 89.66C175.347 88.3691 176.808 87.384 178.472 86.7047C180.17 85.9913 182.022 85.6347 184.026 85.6347C186.03 85.6347 187.847 85.9913 189.478 86.7047C191.142 87.384 192.569 88.3691 193.758 89.66C194.947 90.9168 195.847 92.4114 196.458 94.1438C197.104 95.8762 197.393 97.7615 197.325 99.7996L197.274 101.94H175.924L174.752 97.0991H189.07L188.102 98.1182V97.201C188.102 96.5556 187.932 95.9951 187.593 95.5196C187.287 95.01 186.845 94.6194 186.268 94.3476C185.69 94.0759 185.011 93.94 184.23 93.94C183.245 93.94 182.412 94.1438 181.733 94.5515C181.054 94.9591 180.527 95.5365 180.153 96.2839C179.814 97.0312 179.644 97.9313 179.644 98.9844C179.644 100.207 179.899 101.277 180.408 102.194C180.952 103.112 181.733 103.825 182.752 104.334C183.805 104.844 185.096 105.099 186.625 105.099C187.644 105.099 188.51 104.98 189.223 104.742C189.97 104.47 190.752 104.046 191.567 103.468L196.306 110.143C195.049 111.128 193.809 111.893 192.586 112.436C191.397 112.98 190.208 113.37 189.019 113.608C187.864 113.846 186.675 113.965 185.453 113.965ZM211.436 113.965C208.48 113.965 205.899 113.523 203.691 112.64C201.517 111.723 199.818 110.585 198.595 109.226L204.608 104.08C205.695 105.031 206.935 105.744 208.327 106.22C209.754 106.661 210.943 106.882 211.894 106.882C212.234 106.882 212.523 106.865 212.76 106.831C213.032 106.763 213.236 106.678 213.372 106.576C213.542 106.441 213.66 106.305 213.728 106.169C213.83 106.033 213.881 105.863 213.881 105.659C213.881 105.15 213.61 104.776 213.066 104.538C212.76 104.402 212.251 104.233 211.537 104.029C210.858 103.825 209.958 103.587 208.837 103.315C207.512 102.976 206.289 102.551 205.168 102.042C204.081 101.532 203.147 100.938 202.366 100.258C201.551 99.5109 200.905 98.6617 200.43 97.7106C199.988 96.7594 199.767 95.6894 199.767 94.5005C199.767 93.1078 200.09 91.8679 200.735 90.7809C201.381 89.6939 202.264 88.7768 203.385 88.0295C204.506 87.2482 205.763 86.6537 207.155 86.2461C208.548 85.8385 209.975 85.6347 211.436 85.6347C213.1 85.6347 214.646 85.8045 216.072 86.1442C217.533 86.4499 218.892 86.9085 220.149 87.5199C221.439 88.0974 222.611 88.7937 223.664 89.609L218.416 95.4686C217.839 94.993 217.159 94.5345 216.378 94.0929C215.631 93.6513 214.832 93.2946 213.983 93.0229C213.168 92.7171 212.404 92.5643 211.69 92.5643C211.317 92.5643 210.994 92.5983 210.722 92.6662C210.484 92.7002 210.281 92.7851 210.111 92.921C209.941 93.0229 209.805 93.1587 209.703 93.3286C209.635 93.4645 209.601 93.6343 209.601 93.8381C209.601 94.1099 209.686 94.3646 209.856 94.6024C210.026 94.8402 210.298 95.044 210.671 95.2138C210.977 95.3497 211.486 95.5366 212.2 95.7743C212.947 96.0121 214.034 96.3348 215.461 96.7424C216.989 97.184 218.331 97.6936 219.486 98.271C220.675 98.8485 221.626 99.5279 222.339 100.309C222.815 100.853 223.189 101.464 223.46 102.143C223.732 102.823 223.868 103.553 223.868 104.334C223.868 106.203 223.325 107.867 222.238 109.328C221.185 110.755 219.724 111.893 217.856 112.742C215.987 113.557 213.847 113.965 211.436 113.965ZM237.668 113.914C235.392 113.914 233.371 113.319 231.605 112.13C229.838 110.907 228.446 109.243 227.426 107.137C226.407 104.997 225.898 102.551 225.898 99.7996C225.898 97.0142 226.39 94.5684 227.375 92.4624C228.395 90.3223 229.787 88.6579 231.554 87.469C233.354 86.2461 235.426 85.6347 237.77 85.6347C238.993 85.6347 240.114 85.8045 241.133 86.1442C242.152 86.4839 243.052 86.9594 243.833 87.5709C244.615 88.1823 245.294 88.8957 245.871 89.7109C246.449 90.4922 246.942 91.3414 247.349 92.2586L245.26 92.2076V86.1951H255.4V113.455H245.005V106.78L247.298 106.984C246.958 107.969 246.483 108.886 245.871 109.735C245.294 110.585 244.598 111.315 243.782 111.926C242.967 112.538 242.05 113.03 241.031 113.404C240.012 113.744 238.891 113.914 237.668 113.914ZM240.623 105.506C241.608 105.506 242.441 105.286 243.12 104.844C243.833 104.402 244.36 103.757 244.7 102.908C245.073 102.059 245.26 101.023 245.26 99.7996C245.26 98.5768 245.073 97.5407 244.7 96.6915C244.36 95.8083 243.833 95.1459 243.12 94.7043C242.441 94.2627 241.608 94.0419 240.623 94.0419C239.638 94.0419 238.806 94.2627 238.127 94.7043C237.447 95.1459 236.921 95.8083 236.547 96.6915C236.207 97.5407 236.038 98.5768 236.038 99.7996C236.038 101.023 236.207 102.059 236.547 102.908C236.921 103.757 237.447 104.402 238.127 104.844C238.806 105.286 239.638 105.506 240.623 105.506ZM262.518 124.665V86.1951H272.098L272.658 92.2076L270.569 91.749C270.807 90.5601 271.384 89.5071 272.301 88.5899C273.219 87.6728 274.374 86.9594 275.766 86.4499C277.193 85.9064 278.739 85.6347 280.403 85.6347C282.645 85.6347 284.632 86.2461 286.365 87.469C288.131 88.6579 289.507 90.3223 290.492 92.4624C291.511 94.5684 292.02 97.0142 292.02 99.7996C292.02 102.551 291.511 104.997 290.492 107.137C289.473 109.243 288.063 110.907 286.263 112.13C284.496 113.319 282.458 113.914 280.148 113.914C278.62 113.914 277.176 113.642 275.817 113.098C274.492 112.555 273.371 111.808 272.454 110.856C271.537 109.871 270.926 108.75 270.62 107.494L272.913 106.78V124.665H262.518ZM277.295 105.506C278.28 105.506 279.112 105.286 279.792 104.844C280.471 104.402 280.98 103.757 281.32 102.908C281.694 102.059 281.881 101.023 281.881 99.7996C281.881 98.5768 281.694 97.5407 281.32 96.6915C280.98 95.8083 280.471 95.1459 279.792 94.7043C279.112 94.2627 278.28 94.0419 277.295 94.0419C276.31 94.0419 275.461 94.2627 274.747 94.7043C274.068 95.1459 273.541 95.8083 273.168 96.6915C272.828 97.5407 272.658 98.5768 272.658 99.7996C272.658 101.023 272.828 102.059 273.168 102.908C273.541 103.757 274.068 104.402 274.747 104.844C275.461 105.286 276.31 105.506 277.295 105.506ZM310.298 113.965C307.139 113.965 304.421 113.353 302.145 112.13C299.869 110.907 298.12 109.243 296.897 107.137C295.674 104.997 295.063 102.551 295.063 99.7996C295.063 97.7615 295.402 95.8762 296.082 94.1438C296.761 92.4114 297.712 90.9168 298.935 89.66C300.192 88.3691 301.653 87.384 303.317 86.7047C305.016 85.9913 306.867 85.6347 308.871 85.6347C310.875 85.6347 312.693 85.9913 314.323 86.7047C315.988 87.384 317.414 88.3691 318.603 89.66C319.792 90.9168 320.692 92.4114 321.304 94.1438C321.949 95.8762 322.238 97.7615 322.17 99.7996L322.119 101.94H300.77L299.598 97.0991H313.915L312.947 98.1182V97.201C312.947 96.5556 312.778 95.9951 312.438 95.5196C312.132 95.01 311.691 94.6194 311.113 94.3476C310.536 94.0759 309.856 93.94 309.075 93.94C308.09 93.94 307.258 94.1438 306.578 94.5515C305.899 94.9591 305.372 95.5365 304.999 96.2839C304.659 97.0312 304.489 97.9313 304.489 98.9844C304.489 100.207 304.744 101.277 305.253 102.194C305.797 103.112 306.578 103.825 307.597 104.334C308.65 104.844 309.941 105.099 311.47 105.099C312.489 105.099 313.355 104.98 314.068 104.742C314.816 104.47 315.597 104.046 316.412 103.468L321.151 110.143C319.894 111.128 318.654 111.893 317.431 112.436C316.242 112.98 315.053 113.37 313.865 113.608C312.71 113.846 311.521 113.965 310.298 113.965ZM339.395 125.174C336.949 125.174 334.52 124.835 332.109 124.155C329.731 123.476 327.778 122.593 326.249 121.506L329.765 114.576C330.512 115.052 331.293 115.459 332.109 115.799C332.924 116.139 333.773 116.393 334.656 116.563C335.573 116.733 336.541 116.818 337.561 116.818C339.157 116.818 340.448 116.597 341.433 116.156C342.418 115.748 343.131 115.086 343.573 114.168C344.049 113.251 344.286 112.079 344.286 110.653V106.576L346.579 106.78C346.307 107.935 345.713 108.954 344.796 109.837C343.879 110.721 342.741 111.417 341.382 111.926C340.023 112.436 338.58 112.691 337.051 112.691C334.639 112.691 332.499 112.147 330.631 111.06C328.797 109.973 327.336 108.462 326.249 106.525C325.196 104.555 324.669 102.245 324.669 99.5958C324.669 96.8443 325.196 94.4326 326.249 92.3605C327.302 90.2544 328.729 88.6069 330.529 87.418C332.363 86.2291 334.452 85.6347 336.796 85.6347C337.815 85.6347 338.783 85.7366 339.701 85.9404C340.618 86.1442 341.467 86.4329 342.248 86.8066C343.029 87.1463 343.726 87.5709 344.337 88.0804C344.949 88.5899 345.441 89.1504 345.815 89.7619C346.223 90.3733 346.494 91.0357 346.63 91.749L344.541 92.2076L345.102 86.1951H354.681V110.806C354.681 113.081 354.324 115.103 353.611 116.869C352.931 118.669 351.929 120.181 350.605 121.404C349.28 122.661 347.666 123.595 345.764 124.206C343.896 124.852 341.773 125.174 339.395 125.174ZM339.65 105.303C340.703 105.303 341.586 105.082 342.299 104.64C343.046 104.199 343.607 103.57 343.981 102.755C344.354 101.906 344.541 100.887 344.541 99.6977C344.541 98.5088 344.354 97.4898 343.981 96.6405C343.607 95.7913 343.046 95.1459 342.299 94.7043C341.586 94.2627 340.703 94.0419 339.65 94.0419C338.597 94.0419 337.713 94.2627 337 94.7043C336.287 95.1459 335.743 95.7913 335.37 96.6405C334.996 97.4898 334.809 98.5088 334.809 99.6977C334.809 100.887 334.996 101.906 335.37 102.755C335.743 103.57 336.287 104.199 337 104.64C337.713 105.082 338.597 105.303 339.65 105.303ZM374.838 113.965C371.882 113.965 369.25 113.353 366.94 112.13C364.63 110.907 362.813 109.243 361.488 107.137C360.163 104.997 359.501 102.551 359.501 99.7996C359.501 97.0482 360.163 94.6194 361.488 92.5133C362.813 90.3733 364.63 88.6918 366.94 87.469C369.25 86.2461 371.882 85.6347 374.838 85.6347C377.793 85.6347 380.408 86.2461 382.684 87.469C384.994 88.6918 386.795 90.3733 388.085 92.5133C389.41 94.6194 390.073 97.0482 390.073 99.7996C390.073 102.551 389.41 104.997 388.085 107.137C386.795 109.243 384.994 110.907 382.684 112.13C380.408 113.353 377.793 113.965 374.838 113.965ZM374.838 105.303C375.755 105.303 376.57 105.065 377.283 104.589C378.031 104.114 378.608 103.468 379.016 102.653C379.423 101.804 379.627 100.853 379.627 99.7996C379.627 98.7126 379.423 97.7615 379.016 96.9463C378.608 96.097 378.031 95.4346 377.283 94.9591C376.57 94.4835 375.755 94.2457 374.838 94.2457C373.886 94.2457 373.037 94.4835 372.29 94.9591C371.577 95.4346 370.999 96.097 370.557 96.9463C370.15 97.7615 369.946 98.7126 369.946 99.7996C369.946 100.853 370.15 101.804 370.557 102.653C370.999 103.468 371.577 104.114 372.29 104.589C373.037 105.065 373.886 105.303 374.838 105.303Z" fill="#8E7CC3"/>
</svg>
